<svg xmlns="http://www.w3.org/2000/svg" xmlns:xlink="http://www.w3.org/1999/xlink" width="14.88" height="14.875" viewBox="0 0 14.88 14.875">
  <defs>
    <style>
      .cls-1 {
        fill: #737373;
        fill-rule: evenodd;
        filter: url(#filter);
      }
    </style>
    <filter id="filter" x="1344.34" y="36.219" width="15" height="15" filterUnits="userSpaceOnUse">
      <feFlood result="flood" flood-color="#7eb252"/>
      <feComposite result="composite" operator="in" in2="SourceGraphic"/>
      <feBlend result="blend" in2="SourceGraphic"/>
    </filter>
  </defs>
  <path id="телефон" class="cls-1" d="M1346.83,36.22a2.239,2.239,0,0,1,1.86,1.022l1.59,1.588a1.8,1.8,0,0,1,.6.912,1.041,1.041,0,0,1,.03.475,2.041,2.041,0,0,1-.71,1.04c-0.17.183-.35,0.365-0.53,0.548a2.143,2.143,0,0,0-.51.548,1.77,1.77,0,0,1,.18.31c0.14,0.2.3,0.389,0.44,0.584,0.16,0.215.39,0.391,0.55,0.6a8.293,8.293,0,0,0,1.53,1.5c0.08,0.058.14,0.16,0.22,0.219,0.22,0.164.43,0.32,0.66,0.474a0.924,0.924,0,0,0,.4.219,4.965,4.965,0,0,1,.64-0.638,3.166,3.166,0,0,1,1.44-1.114,1.155,1.155,0,0,1,.7.108,5.86,5.86,0,0,1,1.46,1.3c0.38,0.383.76,0.767,1.15,1.151a2.339,2.339,0,0,1,.53.584,3.97,3.97,0,0,1,.14.492,1.58,1.58,0,0,1-.03.657,3.777,3.777,0,0,1-1.01,1.15,3.363,3.363,0,0,1-.88.767,5.02,5.02,0,0,1-.98.292,4.414,4.414,0,0,1-1.83-.036l-0.31-.037a8.089,8.089,0,0,1-1-.292,15.269,15.269,0,0,1-1.39-.657c-0.25-.138-0.5-0.335-0.75-0.474a14.14,14.14,0,0,1-5.25-5.349c-0.13-.23-0.3-0.466-0.44-0.693a7.319,7.319,0,0,1-.44-0.967,5.686,5.686,0,0,1-.14-4.454,3.21,3.21,0,0,1,.71-0.767l0.78-.8a1.8,1.8,0,0,1,.31-0.183A1.2,1.2,0,0,0,1346.83,36.22Zm0.11,0.8c-0.07.049-.16,0.063-0.22,0.11l-0.84.857a1.8,1.8,0,0,0-.44.474c-0.71,1.6.02,3.674,0.69,4.782a29.232,29.232,0,0,0,1.65,2.447c0.09,0.122.23,0.224,0.32,0.347a3.168,3.168,0,0,0,.57.6c0.07,0.051.1,0.15,0.16,0.2,0.27,0.215.5,0.49,0.77,0.694,0.32,0.24.62,0.5,0.95,0.73a19.791,19.791,0,0,0,1.95,1.169,5.461,5.461,0,0,0,3.78.73,3.81,3.81,0,0,0,.59-0.146,2.139,2.139,0,0,0,.58-0.493c0.29-.286.58-0.572,0.88-0.858a0.612,0.612,0,0,1,.07-0.127,1.264,1.264,0,0,0-.66-1.113c-0.11-.115-0.21-0.249-0.33-0.365-0.36-.359-0.73-0.7-1.09-1.059a2.261,2.261,0,0,0-.79-0.694,0.765,0.765,0,0,0-.67.365c-0.37.359-.73,0.718-1.1,1.077a1.454,1.454,0,0,1-.45.42,2.408,2.408,0,0,0-.41-0.109,4.646,4.646,0,0,1-.69-0.4,13.289,13.289,0,0,1-2.9-2.775,3.847,3.847,0,0,1-1.06-1.807,5.54,5.54,0,0,0,.68-0.676c0.35-.35.71-0.683,1.04-1.058H1350a0.666,0.666,0,0,0,.11-0.511,0.829,0.829,0,0,1-.11-0.164,5.08,5.08,0,0,0-.49-0.492c-0.49-.475-0.97-0.95-1.46-1.424A1.487,1.487,0,0,0,1346.94,37.023Z" transform="translate(-1344.34 -36.219)"/>
</svg>
