<svg xmlns="http://www.w3.org/2000/svg" xmlns:xlink="http://www.w3.org/1999/xlink" width="87.688" height="87.5" viewBox="0 0 87.688 87.5">
  <defs>
    <style>
      .cls-1 {
        fill: #737373;
        fill-rule: evenodd;
        filter: url(#filter);
      }
    </style>
    <filter id="filter" x="532.156" y="3524.25" width="88" height="88" filterUnits="userSpaceOnUse">
      <feFlood result="flood" flood-color="#a4c58c"/>
      <feComposite result="composite" operator="in" in2="SourceGraphic"/>
      <feBlend result="blend" in2="SourceGraphic"/>
    </filter>
  </defs>
  <path id="new_vector_shape_done" class="cls-1" d="M589.574,3524.25h0.977a0.865,0.865,0,0,0,.39.19,5.849,5.849,0,0,1,.684.88,19.421,19.421,0,0,1-3.906,12.8,9.377,9.377,0,0,1-1.661,1.95,32.522,32.522,0,0,1-2.734,1.95,3.8,3.8,0,0,0-1.269.69,8.987,8.987,0,0,0-.489,1.17c-0.723,1.39-1.315,2.81-2.051,4.29a70.373,70.373,0,0,0-4.3,10.06h0.195a12.845,12.845,0,0,1,2.93-2.73c0.711-.54,1.33-1.32,2.05-1.86,1.842-1.36,3.692-2.56,5.664-3.8,1.3-.82,2.466-2.13,4.493-2.15,0.486,0.59,1,.68,1.074,1.75a18.779,18.779,0,0,0-1.172,2.84c-1.267,2.55-2.269,5.41-3.418,8.1h0.293c0.38-.77,2.1-1.8,2.832-2.34,2.168-1.61,4.084-3.67,6.25-5.27,0.722-.54,2.839-1.86,3.125-2.64,0.164-.44-0.3-1.86-0.1-2.74A14,14,0,0,1,601,3543.1a11.221,11.221,0,0,1,6.347-4.59c3.826-1.18,8.427,1.4,9.864,3.32a13.785,13.785,0,0,1,2.148,3.71c2.2,6.44-3.139,11.61-7.617,12.89-1.761.5-3.577-.14-5.176-0.2-0.681.87-2.485,1.6-2.929,2.54a19.679,19.679,0,0,1,4.882.98c3.827,1.05,9.019,1.86,10.84,4.78,0.588,0.95.391,2.89,0.391,4.4,0,5.01.443,7.12-3.125,8.79a27.437,27.437,0,0,1-2.539,11.23c-3.923,9.28-11.031,18.06-21.387,20.8H559.3a25.072,25.072,0,0,1-3.907-1.37c-8.413-4.14-14.646-11.49-18.066-20.6a57.77,57.77,0,0,1-1.758-7.03l-0.2-3.03-0.781-.39a7.494,7.494,0,0,1-1.954-1.96c-0.792-1.28-.39-5.47-0.39-7.52v-2.53a5.476,5.476,0,0,1,2.734-2.84c3.458-2.17,8.061-2.79,12.7-3.9,1.665-.4,3.359-0.3,4.98-0.69,0.618-.14,1.568.09,1.855-0.39-0.916-1.01-1.232-2.72-1.757-4.1-1.171-3.08-1.784-6.5-2.735-9.96-0.065-.62-0.13-1.24-0.2-1.85-0.489-2.03-.918-3.75,1.855-3.72,0.529,0.45,1.409.34,2.149,0.59a37.789,37.789,0,0,1,5.273,2.15,21.678,21.678,0,0,1,11.914,16.01H571.7c2.662-4.74.42-11.74-1.27-15.62a17.04,17.04,0,0,1-14.062-7.81c-0.881-1.33-2.246-3-2.246-5.08a3.833,3.833,0,0,1,.683-0.88,4.21,4.21,0,0,1,2.344-.29,20.739,20.739,0,0,1,5.078.78c4.78,1.34,8.407,3.19,10.059,7.62a22.407,22.407,0,0,1,.586,2.73v1.07c0.525,1.32,1.423,2.76,1.953,4.2,0.249,0.68.526,3.14,0.977,3.42a4.088,4.088,0,0,1,.585-1.27c0.414-.82.553-1.63,0.977-2.44,0.528-1.01,1.341-2.19,1.758-3.22v-2.25c0.466-2.03.5-4.07,1.172-5.86a16.646,16.646,0,0,1,5.761-7.71,12.389,12.389,0,0,1,2.051-1.17A5.514,5.514,0,0,0,589.574,3524.25Zm-1.465,4.1c-0.562.84-1.733,1.24-2.344,2.05a13.862,13.862,0,0,0-3.32,8.4h0.195c0.615-.8,1.728-1.23,2.344-2.05a14.2,14.2,0,0,0,3.32-8.4h-0.195Zm-18.555,11.43c-0.153-4.88-6.423-7.08-11.23-7.62v0.1h-0.1v0.19a4.075,4.075,0,0,1,.586.98c0.471,0.66,1.061,1.29,1.563,1.95C561.831,3537.31,566.273,3539.62,569.554,3539.78Zm36.915,2.24a7.667,7.667,0,0,0,1.367,2.64,16.556,16.556,0,0,0,5.176,5.57c0.492,0.32,2.479,1.77,2.929,1.36,0.912-1.12.8-3.96,0.293-5.37-0.973-2.69-2.254-3.83-5.176-4.59a6.044,6.044,0,0,0-2.539-.19C607.855,3541.6,607.151,3541.91,606.469,3542.02Zm-53.516,1.57a27.251,27.251,0,0,0,1.367,6.34c1.6,5.2,3,10.08,6.641,13.19a14.246,14.246,0,0,0,1.855,1.75c0.427,0.25.929,0.17,1.367,0.39a7.749,7.749,0,0,0,1.563.98v-0.19a21,21,0,0,1-1.465-3.03,63.04,63.04,0,0,0-4.1-6.45c-0.87-1.21-2.926-2.82-2.929-4.68,0.606-.66.7-1.1,2.051-1.08a50.459,50.459,0,0,1,6.738,8.99c0.434,0.69,1.65,3.62,2.148,3.9v-2.93a6.8,6.8,0,0,1-.2-1.66,24.475,24.475,0,0,0-1.367-4.69,19.9,19.9,0,0,0-9.277-9.08C556.134,3544.71,554.593,3543.68,552.953,3543.59Zm60.645,10.54a6.88,6.88,0,0,1-2.54-1.46,20.581,20.581,0,0,1-4.98-4.79c-0.465-.65-1.717-3.45-2.344-3.61-0.289,1.03-.878,1.94-1.172,3.22a5.813,5.813,0,0,0,.2,2.44c0.774,2.9,1.892,4.22,4.589,5.18a6.254,6.254,0,0,0,3.223.39c1.143-.27,2.06-0.8,3.028-1.08v-0.29Zm-27.247-.88a25.327,25.327,0,0,1-3.515,2.44,34.05,34.05,0,0,0-7.617,7.72,10.185,10.185,0,0,0-2.344,6.05h0.1v0.1c7.623-1.45,8.776-4.84,11.426-11.13a41.054,41.054,0,0,0,2.149-5.18h-0.2Zm-11.914,21a27.505,27.505,0,0,0,5.469-.1c0.685-.15,1.612.19,2.149-0.1a8.21,8.21,0,0,0,.781-0.78c1.183-.88,2.259-1.87,3.418-2.73,3.4-2.53,6.554-5.29,9.961-7.81a11.845,11.845,0,0,0,1.757-1.47,2.528,2.528,0,0,1,.586-0.88c0.344-.21.759-0.17,1.075-0.39,0.869-.6,1.592-1.51,2.441-2.15a4.111,4.111,0,0,0,1.563-1.36c-0.984-.34-2.385-2.19-2.832-3.13-1.492.87-2.641,2.31-4,3.32-4.109,3.05-7.82,6.51-11.914,9.57-1.663,1.24-3.016,2.99-4.786,4.1-1.791,1.12-3.7,1.43-5.859,2.25A4.826,4.826,0,0,1,574.437,3574.25ZM555.2,3562.73a7.619,7.619,0,0,1-1.758.19c-1.341.32-2.853,0.23-4.3,0.59-3.342.82-6.829,1.26-9.765,2.34-1.181.44-3.522,0.85-3.907,1.95-0.406.75,2.813,2.48,4,2.15,2.354-.64,5.133-0.96,7.715-1.56h0.977c1.738-.4,3.918-0.38,5.664-0.78h1.074c1.158-.27,2.685-0.32,3.809-0.59,0.672-.16,1.19.12,1.562-0.29a14.062,14.062,0,0,1-3.808-4H555.2Zm45.117,0.68a16.139,16.139,0,0,1-1.953,1.46c-0.61.46-1.148,1.11-1.758,1.57a3.169,3.169,0,0,0-1.172.97h1.075c0.823,0.51,3.783.3,4.98,0.59,2.2,0.53,4.619.54,6.836,1.17,1.189,0.34,2.642.82,3.809,1.08,1.087,0.24,4.395-1.52,4.492-2.45l-0.684-.78c-1.437-.88-3.1-0.98-4.883-1.56A60.968,60.968,0,0,0,600.316,3563.41Zm-8.4,6.74a20.434,20.434,0,0,1-1.856,1.37c-0.442.32-.827,0.84-1.269,1.17a4.131,4.131,0,0,0-1.465,1.17h2.051c0.815-.49,3.962-0.12,5.176-0.39,1.167-.26,2.527-0.1,3.808-0.39,2.231-.51,4.716-0.63,6.934-1.08v-0.09c-0.1-.04-0.2-0.07-0.293-0.1-0.777-.47-2.287-0.25-3.321-0.49-2.232-.53-4.985-0.46-7.324-0.98C593.489,3570.15,592.63,3570.39,591.918,3570.15Zm-37.793.58a6.543,6.543,0,0,1-1.758.2,32.731,32.731,0,0,1-6.348.78v0.2c2.181,0.32,4.363.65,6.543,0.97,0.545-.81,1.978-1.4,2.344-2.15h-0.781Zm8.691,0.59a4.568,4.568,0,0,1-1.172.2,23.092,23.092,0,0,0-3.32.97,9.621,9.621,0,0,0-5.176,4.98,12.1,12.1,0,0,0-.39,2.15,9.066,9.066,0,0,0-.2,3.42c0.2,0.82.362,1.98,0.586,2.73a37.884,37.884,0,0,0,1.172,3.91,2.045,2.045,0,0,0,.586,1.27c0.459-1.46,1.721-2.73,2.539-3.91,2.4-3.43,4.814-6.85,8.2-9.28a13.95,13.95,0,0,1,2.93-1.56,8.216,8.216,0,0,0,1.855-.68l0.879-1.08c0.055-1.13-.273-2.77-1.269-2.83-0.819.65-2.792,1.13-3.809,1.66a18.237,18.237,0,0,0-6.25,5.08c-1,1.41-.841,3.69-3.222,3.71-0.6-.68-1.094-0.65-1.075-2.05a14.722,14.722,0,0,0,.977-2.15c0.489-.8,1.093-1.59,1.66-2.34a19.46,19.46,0,0,1,3.027-2.83c0.58-.42,1.631-0.72,1.954-1.37h-0.489Zm-27.441.59a24.4,24.4,0,0,0,.1,4.29,39.164,39.164,0,0,0,6.641,2.74c1.186,0.41,2.494.46,3.613,0.78,0.456,0.13,3.594.5,3.614,0.49,0.355-.43.115-1,0.293-1.66,0.244-.91.662-1.84,0.879-2.74h-0.1v-0.1a17.566,17.566,0,0,1-4.1-.68c-0.553-.06-1.107-0.13-1.66-0.19-2.035-.56-4.221-0.85-6.152-1.57A22.988,22.988,0,0,0,535.375,3571.91Zm81.054,0a5.182,5.182,0,0,1-1.269.58,42.383,42.383,0,0,1-6.836,2.15c-0.595.17-.944,0.03-1.562,0.2-1.992.52-4.46,0.66-6.543,1.17-0.944.06-1.889,0.13-2.832,0.19-1.451.34-3.407,0.25-4.883,0.59h-1.856c-0.856.19-2.135,0.09-3.027,0.29h-1.856c-0.793.18-2.015-.1-2.929,0.1-2.641.58-7.024,0.19-10.059,0.19-0.9,1.12-2.231,1.28-3.613,1.96a15.519,15.519,0,0,0-2.051,1.36,3.29,3.29,0,0,0-1.367,1.18h2.734c0.655,0.41,2.077-.09,2.93.09a17.787,17.787,0,0,0,3.223.1h5.761a18.91,18.91,0,0,0,3.028-.19c1.582-.35,3.378.11,4.785-0.2,1-.22,2.1-0.01,2.93-0.19h1.66c1.469-.33,3.354-0.26,4.785-0.59,1.406-.33,2.73-0.06,4.1-0.39,2.5-.61,5.3-0.86,7.618-1.56,0.5-.15.774-0.05,1.269-0.2a29.436,29.436,0,0,0,4.492-1.76c0.589-.29,1.232-0.34,1.465-0.97,0.314-.5.109-3.27,0.1-4.1h-0.2Zm-77.734,9.18c-0.345,1.07.3,3.15,0.586,4.1,0.417,1.37.5,2.54,0.977,3.8a42.279,42.279,0,0,0,2.734,5.47c3.594,6.47,9,11.83,16.7,14.16h32.617c8.489-2.58,14.06-8.72,17.774-16.11a29.412,29.412,0,0,0,3.32-11.33h-0.1v-0.09c-2.662,1.11-5.972,1.4-8.985,2.14-1.2.3-2.2,0.11-3.418,0.39-2.492.59-5.512,0.4-8.105,0.98h-1.563a41.43,41.43,0,0,1-4.785.39H583.91a35.774,35.774,0,0,1-6.445.2q-4.638-.06-9.278-0.1c-0.762-.17-1.948.1-2.832-0.1a12.632,12.632,0,0,0-2.539-.19c-0.55.96-1.423,1.74-2.051,2.63-0.941,1.34-1.664,2.7-2.539,4.1-0.331.54-.866,1.11-1.171,1.66-0.72,1.3-.863,2.96-2.93,2.93-1.947-1.97-2.949-5.72-3.906-8.69-0.283-.87-0.293-3.3-0.684-3.9v-0.1a26.642,26.642,0,0,1-6.348-1.17A32.334,32.334,0,0,1,538.7,3581.09Zm63.379,5.66h0.977a0.865,0.865,0,0,0,.39.19,5.849,5.849,0,0,1,.684.88,14.818,14.818,0,0,1-1.563,5.57c-2.054,4.88-4.112,8.6-8.691,10.94-1.216.62-3.96,1.67-6.152,1.17a25.59,25.59,0,0,1-5.86-1.76,16.042,16.042,0,0,0-1.855-1.17h-2.149c-2.79-.62-8.145-0.59-8.105-3.81,0.606-.65.7-1.1,2.051-1.07,0.98,1.14,5.992,2.09,8.3,1.66,0.535-1.44,2.969-2.93,4.2-3.81A75,75,0,0,1,597,3588.7c1.33-.6,2.73-1.01,4-1.56A3.36,3.36,0,0,0,602.074,3586.75Zm-2.051,4.1c-0.846.72-2.291,0.85-3.32,1.37-2.821,1.41-5.734,2.7-8.3,4.29-1.032.65-2.543,1.17-3.222,2.15h0.488a5.269,5.269,0,0,1,1.562-.39,9.254,9.254,0,0,1,3.614-.78,9,9,0,0,0,.781.88,4.194,4.194,0,0,1-.2,1.56,20.454,20.454,0,0,1-5.567,1.86v0.19a10.671,10.671,0,0,1,2.051.39,7.072,7.072,0,0,0,3.613-.39c3.561-1.24,5.226-3.38,6.836-6.54,0.506-.99,1.007-2.16,1.465-3.22a3.218,3.218,0,0,0,.293-1.27v-0.1h-0.1Z" transform="translate(-532.156 -3524.25)"/>
</svg>
